<svg xmlns="http://www.w3.org/2000/svg" viewBox="0 0 480 360" role="img" aria-label="片手を首裏まで深く">
  <defs>
    <marker id="ah" viewBox="0 0 10 10" refX="8" refY="5" markerWidth="8" markerHeight="8" orient="auto-start-reverse">
      <path d="M0 0L10 5L0 10z" fill="#e0552b"/>
    </marker>
    <filter id="shadow" x="-10%" y="-10%" width="120%" height="120%">
      <feDropShadow dx="0" dy="1" stdDeviation="1.2" flood-color="#0f172a" flood-opacity=".15"/>
    </filter>
  </defs>
  <rect x="2" y="2" width="476" height="356" rx="10" fill="#f6f8fb" stroke="#c8d2dd" stroke-width="2"/>
  <g filter="url(#shadow)">
    <circle cx="38" cy="38" r="20" fill="#2d6cdf"/>
    <text x="38" y="45" font-family="sans-serif" font-size="20" font-weight="bold" fill="#fff" text-anchor="middle">1</text>
  </g>
  <g>
    <circle cx="368" cy="30" r="6" fill="#2d6cdf"/><text x="380" y="34" font-family="sans-serif" font-size="11" fill="#64748b">自分</text>
    <circle cx="414" cy="30" r="6" fill="#8a94a3"/><text x="426" y="34" font-family="sans-serif" font-size="11" fill="#64748b">相手</text>
  </g>
  <polyline points="239.0,154.0 208.0,128.0 190.0,102.0" fill="none" stroke="#8a94a3" stroke-width="12" stroke-linecap="round" stroke-linejoin="round" opacity="0.9"/><circle cx="208.0" cy="128.0" r="5.0" fill="#8a94a3" stroke="none" stroke-width="0"/><circle cx="190.0" cy="102.0" r="4.3" fill="#fff" stroke="#8a94a3" stroke-width="3"/><polyline points="239.0,177.0 209.0,205.0 188.0,238.0" fill="none" stroke="#8a94a3" stroke-width="12" stroke-linecap="round" stroke-linejoin="round" opacity="0.9"/><circle cx="209.0" cy="205.0" r="5.0" fill="#8a94a3" stroke="none" stroke-width="0"/><circle cx="188.0" cy="238.0" r="4.3" fill="#fff" stroke="#8a94a3" stroke-width="3"/><polyline points="330.0,145.0 239.0,166.0" fill="none" stroke="#8a94a3" stroke-width="30" stroke-linecap="round" stroke-linejoin="round" opacity="0.86"/><circle cx="239.0" cy="166.0" r="13.0" fill="#8a94a3" stroke="none" stroke-width="0"/><polyline points="309.0,137.0 274.0,145.0 244.0,146.0" fill="none" stroke="#586474" stroke-width="9" stroke-linecap="round" stroke-linejoin="round" opacity="0.9"/><circle cx="274.0" cy="145.0" r="3.8" fill="#586474" stroke="none" stroke-width="0"/><circle cx="244.0" cy="146.0" r="3.2" fill="#fff" stroke="#586474" stroke-width="3"/><polyline points="307.0,158.0 284.0,177.0 262.0,184.0" fill="none" stroke="#586474" stroke-width="9" stroke-linecap="round" stroke-linejoin="round" opacity="0.9"/><circle cx="284.0" cy="177.0" r="3.8" fill="#586474" stroke="none" stroke-width="0"/><circle cx="262.0" cy="184.0" r="3.2" fill="#fff" stroke="#586474" stroke-width="3"/><circle cx="330.0" cy="145.0" r="18.0" fill="#8a94a3" stroke="none" stroke-width="0"/><circle cx="330.0" cy="145.0" r="8.0" fill="#ffffff" stroke="none" stroke-width="0"/><text x="330.0" y="120.0" font-family="sans-serif" font-size="12" font-weight="700" fill="#8a94a3" text-anchor="middle">相手</text><polyline points="184.0,196.0 232.0,128.0 270.0,139.0" fill="none" stroke="#2d6cdf" stroke-width="12" stroke-linecap="round" stroke-linejoin="round" opacity="0.9"/><circle cx="232.0" cy="128.0" r="5.0" fill="#2d6cdf" stroke="none" stroke-width="0"/><circle cx="270.0" cy="139.0" r="4.3" fill="#fff" stroke="#2d6cdf" stroke-width="3"/><polyline points="184.0,219.0 236.0,203.0 272.0,188.0" fill="none" stroke="#2d6cdf" stroke-width="12" stroke-linecap="round" stroke-linejoin="round" opacity="0.9"/><circle cx="236.0" cy="203.0" r="5.0" fill="#2d6cdf" stroke="none" stroke-width="0"/><circle cx="272.0" cy="188.0" r="4.3" fill="#fff" stroke="#2d6cdf" stroke-width="3"/><polyline points="88.0,216.0 184.0,207.0" fill="none" stroke="#2d6cdf" stroke-width="30" stroke-linecap="round" stroke-linejoin="round" opacity="0.86"/><circle cx="184.0" cy="207.0" r="13.0" fill="#2d6cdf" stroke="none" stroke-width="0"/><polyline points="112.0,204.0 166.0,170.0 244.0,146.0" fill="none" stroke="#174a9c" stroke-width="9" stroke-linecap="round" stroke-linejoin="round" opacity="0.9"/><circle cx="166.0" cy="170.0" r="3.8" fill="#174a9c" stroke="none" stroke-width="0"/><circle cx="244.0" cy="146.0" r="3.2" fill="#fff" stroke="#174a9c" stroke-width="3"/><polyline points="112.0,226.0 168.0,226.0 262.0,184.0" fill="none" stroke="#174a9c" stroke-width="9" stroke-linecap="round" stroke-linejoin="round" opacity="0.9"/><circle cx="168.0" cy="226.0" r="3.8" fill="#174a9c" stroke="none" stroke-width="0"/><circle cx="262.0" cy="184.0" r="3.2" fill="#fff" stroke="#174a9c" stroke-width="3"/><circle cx="88.0" cy="216.0" r="18.0" fill="#2d6cdf" stroke="none" stroke-width="0"/><circle cx="88.0" cy="216.0" r="8.0" fill="#ffffff" stroke="none" stroke-width="0"/><text x="88.0" y="191.0" font-family="sans-serif" font-size="12" font-weight="700" fill="#2d6cdf" text-anchor="middle">自分</text><circle cx="244.0" cy="146.0" r="8.0" fill="#fff" stroke="#111827" stroke-width="2"/><circle cx="244.0" cy="146.0" r="3.0" fill="#111827" stroke="none" stroke-width="0"/><text x="244.0" y="133.0" font-family="sans-serif" font-size="11" font-weight="700" fill="#111827" text-anchor="middle">襟</text><circle cx="262.0" cy="184.0" r="8.0" fill="#fff" stroke="#111827" stroke-width="2"/><circle cx="262.0" cy="184.0" r="3.0" fill="#111827" stroke="none" stroke-width="0"/><text x="262.0" y="171.0" font-family="sans-serif" font-size="11" font-weight="700" fill="#111827" text-anchor="middle">袖</text><polygon points="232.0,128.0 270.0,139.0 272.0,188.0 236.0,203.0" fill="#dbeafe" opacity="0.58" stroke="#c2410c" stroke-width="2" stroke-dasharray="5 4"/><text x="250.0" y="118.0" font-family="sans-serif" font-size="11" font-weight="700" fill="#64748b" text-anchor="middle">脚で腰を閉じる</text><polygon points="228.0,128.0 260.0,132.0 252.0,158.0 224.0,154.0" fill="#fee2e2" opacity="0.7" stroke="#c2410c" stroke-width="2" stroke-dasharray="5 4"/><text x="242.0" y="106.0" font-family="sans-serif" font-size="11" font-weight="700" fill="#64748b" text-anchor="middle">片手を首裏まで深く</text>
  <text x="240" y="338" font-family="sans-serif" font-size="14" font-weight="700" fill="#334155" text-anchor="middle">片手を首裏まで深く</text>
</svg>
