<svg xmlns="http://www.w3.org/2000/svg" viewBox="0 0 480 360" role="img" aria-label="バックから襟を深く握る">
  <defs>
    <marker id="ah" viewBox="0 0 10 10" refX="8" refY="5" markerWidth="8" markerHeight="8" orient="auto-start-reverse">
      <path d="M0 0L10 5L0 10z" fill="#e0552b"/>
    </marker>
    <filter id="shadow" x="-10%" y="-10%" width="120%" height="120%">
      <feDropShadow dx="0" dy="1" stdDeviation="1.2" flood-color="#0f172a" flood-opacity=".15"/>
    </filter>
  </defs>
  <rect x="2" y="2" width="476" height="356" rx="10" fill="#f6f8fb" stroke="#c8d2dd" stroke-width="2"/>
  <g filter="url(#shadow)">
    <circle cx="38" cy="38" r="20" fill="#2d6cdf"/>
    <text x="38" y="45" font-family="sans-serif" font-size="20" font-weight="bold" fill="#fff" text-anchor="middle">1</text>
  </g>
  <g>
    <circle cx="368" cy="30" r="6" fill="#2d6cdf"/><text x="380" y="34" font-family="sans-serif" font-size="11" fill="#64748b">自分</text>
    <circle cx="414" cy="30" r="6" fill="#8a94a3"/><text x="426" y="34" font-family="sans-serif" font-size="11" fill="#64748b">相手</text>
  </g>
  <polyline points="236.0,210.0 214.0,248.0 196.0,280.0" fill="none" stroke="#8a94a3" stroke-width="12" stroke-linecap="round" stroke-linejoin="round" opacity="0.9"/><circle cx="214.0" cy="248.0" r="5.0" fill="#8a94a3" stroke="none" stroke-width="0"/><circle cx="196.0" cy="280.0" r="4.3" fill="#fff" stroke="#8a94a3" stroke-width="3"/><polyline points="260.0,210.0 290.0,246.0 316.0,274.0" fill="none" stroke="#8a94a3" stroke-width="12" stroke-linecap="round" stroke-linejoin="round" opacity="0.9"/><circle cx="290.0" cy="246.0" r="5.0" fill="#8a94a3" stroke="none" stroke-width="0"/><circle cx="316.0" cy="274.0" r="4.3" fill="#fff" stroke="#8a94a3" stroke-width="3"/><polyline points="248.0,82.0 248.0,204.0" fill="none" stroke="#8a94a3" stroke-width="30" stroke-linecap="round" stroke-linejoin="round" opacity="0.86"/><circle cx="248.0" cy="204.0" r="13.0" fill="#8a94a3" stroke="none" stroke-width="0"/><polyline points="236.0,114.0 232.0,150.0 226.0,180.0" fill="none" stroke="#586474" stroke-width="9" stroke-linecap="round" stroke-linejoin="round" opacity="0.9"/><circle cx="232.0" cy="150.0" r="3.8" fill="#586474" stroke="none" stroke-width="0"/><circle cx="226.0" cy="180.0" r="3.2" fill="#fff" stroke="#586474" stroke-width="3"/><polyline points="260.0,114.0 270.0,150.0 282.0,178.0" fill="none" stroke="#586474" stroke-width="9" stroke-linecap="round" stroke-linejoin="round" opacity="0.9"/><circle cx="270.0" cy="150.0" r="3.8" fill="#586474" stroke="none" stroke-width="0"/><circle cx="282.0" cy="178.0" r="3.2" fill="#fff" stroke="#586474" stroke-width="3"/><circle cx="248.0" cy="82.0" r="18.0" fill="#8a94a3" stroke="none" stroke-width="0"/><circle cx="248.0" cy="82.0" r="8.0" fill="#ffffff" stroke="none" stroke-width="0"/><text x="248.0" y="57.0" font-family="sans-serif" font-size="12" font-weight="700" fill="#8a94a3" text-anchor="middle">相手</text><polyline points="190.0,210.0 224.0,226.0 254.0,218.0" fill="none" stroke="#2d6cdf" stroke-width="12" stroke-linecap="round" stroke-linejoin="round" opacity="0.9"/><circle cx="224.0" cy="226.0" r="5.0" fill="#2d6cdf" stroke="none" stroke-width="0"/><circle cx="254.0" cy="218.0" r="4.3" fill="#fff" stroke="#2d6cdf" stroke-width="3"/><polyline points="210.0,210.0 250.0,198.0 282.0,212.0" fill="none" stroke="#2d6cdf" stroke-width="12" stroke-linecap="round" stroke-linejoin="round" opacity="0.9"/><circle cx="250.0" cy="198.0" r="5.0" fill="#2d6cdf" stroke="none" stroke-width="0"/><circle cx="282.0" cy="212.0" r="4.3" fill="#fff" stroke="#2d6cdf" stroke-width="3"/><polyline points="198.0,86.0 200.0,204.0" fill="none" stroke="#2d6cdf" stroke-width="30" stroke-linecap="round" stroke-linejoin="round" opacity="0.86"/><circle cx="200.0" cy="204.0" r="13.0" fill="#2d6cdf" stroke="none" stroke-width="0"/><polyline points="188.0,120.0 214.0,106.0 244.0,92.0" fill="none" stroke="#174a9c" stroke-width="9" stroke-linecap="round" stroke-linejoin="round" opacity="0.9"/><circle cx="214.0" cy="106.0" r="3.8" fill="#174a9c" stroke="none" stroke-width="0"/><circle cx="244.0" cy="92.0" r="3.2" fill="#fff" stroke="#174a9c" stroke-width="3"/><polyline points="210.0,120.0 246.0,168.0 294.0,250.0" fill="none" stroke="#174a9c" stroke-width="9" stroke-linecap="round" stroke-linejoin="round" opacity="0.9"/><circle cx="246.0" cy="168.0" r="3.8" fill="#174a9c" stroke="none" stroke-width="0"/><circle cx="294.0" cy="250.0" r="3.2" fill="#fff" stroke="#174a9c" stroke-width="3"/><circle cx="198.0" cy="86.0" r="18.0" fill="#2d6cdf" stroke="none" stroke-width="0"/><circle cx="198.0" cy="86.0" r="8.0" fill="#ffffff" stroke="none" stroke-width="0"/><text x="198.0" y="61.0" font-family="sans-serif" font-size="12" font-weight="700" fill="#2d6cdf" text-anchor="middle">自分</text><circle cx="244.0" cy="92.0" r="8.0" fill="#fff" stroke="#111827" stroke-width="2"/><circle cx="244.0" cy="92.0" r="3.0" fill="#111827" stroke="none" stroke-width="0"/><text x="244.0" y="79.0" font-family="sans-serif" font-size="11" font-weight="700" fill="#111827" text-anchor="middle">襟</text><polygon points="190.0,210.0 254.0,218.0 282.0,212.0 210.0,210.0" fill="#dbeafe" opacity="0.45" stroke="#c2410c" stroke-width="2" stroke-dasharray="5 4"/><text x="236.0" y="235.0" font-family="sans-serif" font-size="11" font-weight="700" fill="#64748b" text-anchor="middle">両フックで背中を固定</text>
  <text x="240" y="338" font-family="sans-serif" font-size="14" font-weight="700" fill="#334155" text-anchor="middle">バックから襟を深く握る</text>
</svg>
