<svg xmlns="http://www.w3.org/2000/svg" viewBox="0 0 480 360" role="img" aria-label="手首を下げ肘を上げる">
  <defs>
    <marker id="ah" viewBox="0 0 10 10" refX="8" refY="5" markerWidth="8" markerHeight="8" orient="auto-start-reverse">
      <path d="M0 0L10 5L0 10z" fill="#e0552b"/>
    </marker>
    <filter id="shadow" x="-10%" y="-10%" width="120%" height="120%">
      <feDropShadow dx="0" dy="1" stdDeviation="1.2" flood-color="#0f172a" flood-opacity=".15"/>
    </filter>
  </defs>
  <rect x="2" y="2" width="476" height="356" rx="10" fill="#f6f8fb" stroke="#c8d2dd" stroke-width="2"/>
  <g filter="url(#shadow)">
    <circle cx="38" cy="38" r="20" fill="#2d6cdf"/>
    <text x="38" y="45" font-family="sans-serif" font-size="20" font-weight="bold" fill="#fff" text-anchor="middle">3</text>
  </g>
  <g>
    <circle cx="368" cy="30" r="6" fill="#2d6cdf"/><text x="380" y="34" font-family="sans-serif" font-size="11" fill="#64748b">自分</text>
    <circle cx="414" cy="30" r="6" fill="#8a94a3"/><text x="426" y="34" font-family="sans-serif" font-size="11" fill="#64748b">相手</text>
  </g>
  <polyline points="246.0,181.0 288.0,156.0 326.0,146.0" fill="none" stroke="#8a94a3" stroke-width="12" stroke-linecap="round" stroke-linejoin="round" opacity="0.9"/><circle cx="288.0" cy="156.0" r="5.0" fill="#8a94a3" stroke="none" stroke-width="0"/><circle cx="326.0" cy="146.0" r="4.3" fill="#fff" stroke="#8a94a3" stroke-width="3"/><polyline points="246.0,219.0 292.0,236.0 330.0,250.0" fill="none" stroke="#8a94a3" stroke-width="12" stroke-linecap="round" stroke-linejoin="round" opacity="0.9"/><circle cx="292.0" cy="236.0" r="5.0" fill="#8a94a3" stroke="none" stroke-width="0"/><circle cx="330.0" cy="250.0" r="4.3" fill="#fff" stroke="#8a94a3" stroke-width="3"/><polyline points="94.0,200.0 246.0,200.0" fill="none" stroke="#8a94a3" stroke-width="30" stroke-linecap="round" stroke-linejoin="round" opacity="0.86"/><circle cx="246.0" cy="200.0" r="13.0" fill="#8a94a3" stroke="none" stroke-width="0"/><polyline points="142.0,174.0 190.0,142.0 244.0,144.0" fill="none" stroke="#586474" stroke-width="9" stroke-linecap="round" stroke-linejoin="round" opacity="0.9"/><circle cx="190.0" cy="142.0" r="3.8" fill="#586474" stroke="none" stroke-width="0"/><circle cx="244.0" cy="144.0" r="3.2" fill="#fff" stroke="#586474" stroke-width="3"/><polyline points="142.0,222.0 176.0,246.0 218.0,250.0" fill="none" stroke="#586474" stroke-width="9" stroke-linecap="round" stroke-linejoin="round" opacity="0.9"/><circle cx="176.0" cy="246.0" r="3.8" fill="#586474" stroke="none" stroke-width="0"/><circle cx="218.0" cy="250.0" r="3.2" fill="#fff" stroke="#586474" stroke-width="3"/><circle cx="94.0" cy="200.0" r="18.0" fill="#8a94a3" stroke="none" stroke-width="0"/><circle cx="94.0" cy="200.0" r="8.0" fill="#ffffff" stroke="none" stroke-width="0"/><text x="94.0" y="175.0" font-family="sans-serif" font-size="12" font-weight="700" fill="#8a94a3" text-anchor="middle">相手</text><polyline points="236.0,176.0 280.0,176.0 320.0,186.0" fill="none" stroke="#2d6cdf" stroke-width="12" stroke-linecap="round" stroke-linejoin="round" opacity="0.9"/><circle cx="280.0" cy="176.0" r="5.0" fill="#2d6cdf" stroke="none" stroke-width="0"/><circle cx="320.0" cy="186.0" r="4.3" fill="#fff" stroke="#2d6cdf" stroke-width="3"/><polyline points="230.0,194.0 276.0,220.0 316.0,238.0" fill="none" stroke="#2d6cdf" stroke-width="12" stroke-linecap="round" stroke-linejoin="round" opacity="0.9"/><circle cx="276.0" cy="220.0" r="5.0" fill="#2d6cdf" stroke="none" stroke-width="0"/><circle cx="316.0" cy="238.0" r="4.3" fill="#fff" stroke="#2d6cdf" stroke-width="3"/><polyline points="224.0,84.0 232.0,182.0" fill="none" stroke="#2d6cdf" stroke-width="30" stroke-linecap="round" stroke-linejoin="round" opacity="0.86"/><circle cx="232.0" cy="182.0" r="13.0" fill="#2d6cdf" stroke="none" stroke-width="0"/><polyline points="212.0,122.0 226.0,138.0 244.0,144.0" fill="none" stroke="#174a9c" stroke-width="9" stroke-linecap="round" stroke-linejoin="round" opacity="0.9"/><circle cx="226.0" cy="138.0" r="3.8" fill="#174a9c" stroke="none" stroke-width="0"/><circle cx="244.0" cy="144.0" r="3.2" fill="#fff" stroke="#174a9c" stroke-width="3"/><polyline points="238.0,126.0 214.0,154.0 190.0,142.0" fill="none" stroke="#174a9c" stroke-width="9" stroke-linecap="round" stroke-linejoin="round" opacity="0.9"/><circle cx="214.0" cy="154.0" r="3.8" fill="#174a9c" stroke="none" stroke-width="0"/><circle cx="190.0" cy="142.0" r="3.2" fill="#fff" stroke="#174a9c" stroke-width="3"/><circle cx="224.0" cy="84.0" r="18.0" fill="#2d6cdf" stroke="none" stroke-width="0"/><circle cx="224.0" cy="84.0" r="8.0" fill="#ffffff" stroke="none" stroke-width="0"/><text x="224.0" y="59.0" font-family="sans-serif" font-size="12" font-weight="700" fill="#2d6cdf" text-anchor="middle">自分</text><polyline points="244.0,144.0 190.0,142.0 214.0,154.0 244.0,144.0" fill="none" stroke="#c2410c" stroke-width="7" stroke-linecap="round" stroke-linejoin="round" opacity="0.9"/><circle cx="244.0" cy="144.0" r="8.0" fill="#fff" stroke="#111827" stroke-width="2"/><circle cx="244.0" cy="144.0" r="3.0" fill="#111827" stroke="none" stroke-width="0"/><text x="244.0" y="131.0" font-family="sans-serif" font-size="11" font-weight="700" fill="#111827" text-anchor="middle">手首</text><text x="214.0" y="132.0" font-family="sans-serif" font-size="11" font-weight="700" fill="#64748b" text-anchor="middle">腕を4の字</text><line x1="214.0" y1="154.0" x2="222.0" y2="126.0" stroke="#e0552b" stroke-width="5" stroke-linecap="round" marker-end="url(#ah)"/><text x="218.0" y="130.0" font-family="sans-serif" font-size="12" font-weight="700" fill="#e0552b" text-anchor="middle">肘を上げる</text><line x1="244.0" y1="144.0" x2="252.0" y2="170.0" stroke="#e0552b" stroke-width="5" stroke-linecap="round" marker-end="url(#ah)"/><text x="248.0" y="147.0" font-family="sans-serif" font-size="12" font-weight="700" fill="#e0552b" text-anchor="middle">手首は下</text>
  <text x="240" y="338" font-family="sans-serif" font-size="14" font-weight="700" fill="#334155" text-anchor="middle">手首を下げ肘を上げる</text>
</svg>
