<svg xmlns="http://www.w3.org/2000/svg" viewBox="0 0 400 300" role="img" aria-label="ヒップを上げて極める">
  <defs>
    <marker id="ah" viewBox="0 0 10 10" refX="8" refY="5" markerWidth="7" markerHeight="7" orient="auto-start-reverse">
      <path d="M0 0L10 5L0 10z" fill="#e0552b"/>
    </marker>
  </defs>
  <rect x="2" y="2" width="396" height="296" rx="12" fill="#f4f6f8" stroke="#c3ccd6" stroke-width="2"/>
  <circle cx="38" cy="38" r="20" fill="#2d6cdf"/>
  <text x="38" y="45" font-family="sans-serif" font-size="20" font-weight="bold" fill="#fff" text-anchor="middle">3</text>
  <g>
    <circle cx="300" cy="30" r="6" fill="#2d6cdf"/><text x="312" y="34" font-family="sans-serif" font-size="11" fill="#6b7888">自分</text>
    <circle cx="345" cy="30" r="6" fill="#8a94a3"/><text x="357" y="34" font-family="sans-serif" font-size="11" fill="#6b7888">相手</text>
  </g>
  <line x1="300" y1="175" x2="205" y2="175" stroke="#8a94a3" stroke-width="24" stroke-linecap="round" opacity="0.82"/><circle cx="300" cy="175" r="15" fill="#8a94a3"/><text x="300" y="155" font-family="sans-serif" font-size="11" font-weight="bold" fill="#8a94a3" text-anchor="middle">相手</text><line x1="180" y1="95" x2="180" y2="175" stroke="#2d6cdf" stroke-width="24" stroke-linecap="round" opacity="0.82"/><circle cx="180" cy="95" r="15" fill="#2d6cdf"/><text x="180" y="75" font-family="sans-serif" font-size="11" font-weight="bold" fill="#2d6cdf" text-anchor="middle">自分</text><line x1="165" y1="120" x2="255" y2="150" stroke="#2d6cdf" stroke-width="7" stroke-linecap="round" opacity="0.75"/><line x1="195" y1="120" x2="255" y2="170" stroke="#2d6cdf" stroke-width="7" stroke-linecap="round" opacity="0.75"/><line x1="250" y1="165" x2="185" y2="150" stroke="#c23" stroke-width="7" stroke-linecap="round" opacity="0.75"/><circle cx="200" cy="150" r="6" fill="#fff" stroke="#1f2933" stroke-width="2"/><circle cx="200" cy="150" r="2" fill="#1f2933"/><line x1="200" y1="200" x2="200" y2="120" stroke="#e0552b" stroke-width="4" marker-end="url(#ah)"/><text x="200" y="152" font-family="sans-serif" font-size="11" font-weight="bold" fill="#e0552b" text-anchor="middle">腕を伸ばす</text>
  <text x="200" y="288" font-family="sans-serif" font-size="13" fill="#46505c" text-anchor="middle">ヒップを上げて極める</text>
</svg>
