<svg xmlns="http://www.w3.org/2000/svg" viewBox="0 0 400 300" role="img" aria-label="振り子で勢いをつける">
  <defs>
    <marker id="ah" viewBox="0 0 10 10" refX="8" refY="5" markerWidth="7" markerHeight="7" orient="auto-start-reverse">
      <path d="M0 0L10 5L0 10z" fill="#e0552b"/>
    </marker>
  </defs>
  <rect x="2" y="2" width="396" height="296" rx="12" fill="#f4f6f8" stroke="#c3ccd6" stroke-width="2"/>
  <circle cx="38" cy="38" r="20" fill="#2d6cdf"/>
  <text x="38" y="45" font-family="sans-serif" font-size="20" font-weight="bold" fill="#fff" text-anchor="middle">2</text>
  <g>
    <circle cx="300" cy="30" r="6" fill="#2d6cdf"/><text x="312" y="34" font-family="sans-serif" font-size="11" fill="#6b7888">自分</text>
    <circle cx="345" cy="30" r="6" fill="#8a94a3"/><text x="357" y="34" font-family="sans-serif" font-size="11" fill="#6b7888">相手</text>
  </g>
  <line x1="120" y1="205" x2="212" y2="205" stroke="#2d6cdf" stroke-width="24" stroke-linecap="round" opacity="0.82"/><circle cx="120" cy="205" r="15" fill="#2d6cdf"/><text x="120" y="185" font-family="sans-serif" font-size="11" font-weight="bold" fill="#2d6cdf" text-anchor="middle">自分</text><line x1="305" y1="150" x2="215" y2="169" stroke="#8a94a3" stroke-width="24" stroke-linecap="round" opacity="0.82"/><circle cx="305" cy="150" r="15" fill="#8a94a3"/><text x="305" y="130" font-family="sans-serif" font-size="11" font-weight="bold" fill="#8a94a3" text-anchor="middle">相手</text><line x1="210" y1="200" x2="250" y2="150" stroke="#2d6cdf" stroke-width="7" stroke-linecap="round" opacity="0.75"/><line x1="210" y1="215" x2="252" y2="178" stroke="#2d6cdf" stroke-width="7" stroke-linecap="round" opacity="0.75"/><circle cx="250" cy="150" r="6" fill="#fff" stroke="#1f2933" stroke-width="2"/><circle cx="250" cy="150" r="2" fill="#1f2933"/><circle cx="262" cy="175" r="6" fill="#fff" stroke="#1f2933" stroke-width="2"/><circle cx="262" cy="175" r="2" fill="#1f2933"/><line x1="150" y1="240" x2="150" y2="150" stroke="#e0552b" stroke-width="4" marker-end="url(#ah)"/><text x="150" y="187" font-family="sans-serif" font-size="11" font-weight="bold" fill="#e0552b" text-anchor="middle">脚を振る</text>
  <text x="200" y="288" font-family="sans-serif" font-size="13" fill="#46505c" text-anchor="middle">振り子で勢いをつける</text>
</svg>
