<svg xmlns="http://www.w3.org/2000/svg" viewBox="0 0 480 360" role="img" aria-label="起き上がってトップへ">
  <defs>
    <marker id="ah" viewBox="0 0 10 10" refX="8" refY="5" markerWidth="8" markerHeight="8" orient="auto-start-reverse">
      <path d="M0 0L10 5L0 10z" fill="#e0552b"/>
    </marker>
    <filter id="shadow" x="-10%" y="-10%" width="120%" height="120%">
      <feDropShadow dx="0" dy="1" stdDeviation="1.2" flood-color="#0f172a" flood-opacity=".15"/>
    </filter>
  </defs>
  <rect x="2" y="2" width="476" height="356" rx="10" fill="#f6f8fb" stroke="#c8d2dd" stroke-width="2"/>
  <g filter="url(#shadow)">
    <circle cx="38" cy="38" r="20" fill="#2d6cdf"/>
    <text x="38" y="45" font-family="sans-serif" font-size="20" font-weight="bold" fill="#fff" text-anchor="middle">3</text>
  </g>
  <g>
    <circle cx="368" cy="30" r="6" fill="#2d6cdf"/><text x="380" y="34" font-family="sans-serif" font-size="11" fill="#64748b">自分</text>
    <circle cx="414" cy="30" r="6" fill="#8a94a3"/><text x="426" y="34" font-family="sans-serif" font-size="11" fill="#64748b">相手</text>
  </g>
  <polyline points="238.0,158.0 262.0,204.0 292.0,238.0" fill="none" stroke="#8a94a3" stroke-width="12" stroke-linecap="round" stroke-linejoin="round" opacity="0.9"/><circle cx="262.0" cy="204.0" r="5.0" fill="#8a94a3" stroke="none" stroke-width="0"/><circle cx="292.0" cy="238.0" r="4.3" fill="#fff" stroke="#8a94a3" stroke-width="3"/><polyline points="238.0,176.0 205.0,214.0 178.0,248.0" fill="none" stroke="#8a94a3" stroke-width="12" stroke-linecap="round" stroke-linejoin="round" opacity="0.9"/><circle cx="205.0" cy="214.0" r="5.0" fill="#8a94a3" stroke="none" stroke-width="0"/><circle cx="178.0" cy="248.0" r="4.3" fill="#fff" stroke="#8a94a3" stroke-width="3"/><polyline points="334.0,154.0 238.0,166.0" fill="none" stroke="#8a94a3" stroke-width="30" stroke-linecap="round" stroke-linejoin="round" opacity="0.86"/><circle cx="238.0" cy="166.0" r="13.0" fill="#8a94a3" stroke="none" stroke-width="0"/><polyline points="310.0,142.0 270.0,146.0 234.0,150.0" fill="none" stroke="#586474" stroke-width="9" stroke-linecap="round" stroke-linejoin="round" opacity="0.9"/><circle cx="270.0" cy="146.0" r="3.8" fill="#586474" stroke="none" stroke-width="0"/><circle cx="234.0" cy="150.0" r="3.2" fill="#fff" stroke="#586474" stroke-width="3"/><polyline points="310.0,166.0 272.0,190.0 226.0,212.0" fill="none" stroke="#586474" stroke-width="9" stroke-linecap="round" stroke-linejoin="round" opacity="0.9"/><circle cx="272.0" cy="190.0" r="3.8" fill="#586474" stroke="none" stroke-width="0"/><circle cx="226.0" cy="212.0" r="3.2" fill="#fff" stroke="#586474" stroke-width="3"/><circle cx="334.0" cy="154.0" r="18.0" fill="#8a94a3" stroke="none" stroke-width="0"/><circle cx="334.0" cy="154.0" r="8.0" fill="#ffffff" stroke="none" stroke-width="0"/><text x="334.0" y="129.0" font-family="sans-serif" font-size="12" font-weight="700" fill="#8a94a3" text-anchor="middle">相手</text><polyline points="176.0,198.0 224.0,202.0 268.0,202.0" fill="none" stroke="#2d6cdf" stroke-width="12" stroke-linecap="round" stroke-linejoin="round" opacity="0.9"/><circle cx="224.0" cy="202.0" r="5.0" fill="#2d6cdf" stroke="none" stroke-width="0"/><circle cx="268.0" cy="202.0" r="4.3" fill="#fff" stroke="#2d6cdf" stroke-width="3"/><polyline points="176.0,222.0 222.0,228.0 268.0,220.0" fill="none" stroke="#2d6cdf" stroke-width="12" stroke-linecap="round" stroke-linejoin="round" opacity="0.9"/><circle cx="222.0" cy="228.0" r="5.0" fill="#2d6cdf" stroke="none" stroke-width="0"/><circle cx="268.0" cy="220.0" r="4.3" fill="#fff" stroke="#2d6cdf" stroke-width="3"/><polyline points="82.0,214.0 176.0,210.0" fill="none" stroke="#2d6cdf" stroke-width="30" stroke-linecap="round" stroke-linejoin="round" opacity="0.86"/><circle cx="176.0" cy="210.0" r="13.0" fill="#2d6cdf" stroke="none" stroke-width="0"/><polyline points="102.0,198.0 150.0,166.0 234.0,150.0" fill="none" stroke="#174a9c" stroke-width="9" stroke-linecap="round" stroke-linejoin="round" opacity="0.9"/><circle cx="150.0" cy="166.0" r="3.8" fill="#174a9c" stroke="none" stroke-width="0"/><circle cx="234.0" cy="150.0" r="3.2" fill="#fff" stroke="#174a9c" stroke-width="3"/><polyline points="100.0,226.0 147.0,228.0 216.0,212.0" fill="none" stroke="#174a9c" stroke-width="9" stroke-linecap="round" stroke-linejoin="round" opacity="0.9"/><circle cx="147.0" cy="228.0" r="3.8" fill="#174a9c" stroke="none" stroke-width="0"/><circle cx="216.0" cy="212.0" r="3.2" fill="#fff" stroke="#174a9c" stroke-width="3"/><circle cx="82.0" cy="214.0" r="18.0" fill="#2d6cdf" stroke="none" stroke-width="0"/><circle cx="82.0" cy="214.0" r="8.0" fill="#ffffff" stroke="none" stroke-width="0"/><text x="82.0" y="189.0" font-family="sans-serif" font-size="12" font-weight="700" fill="#2d6cdf" text-anchor="middle">自分</text><polygon points="222.0,196.0 270.0,194.0 272.0,226.0 220.0,232.0" fill="#dbeafe" opacity="0.55" stroke="#c2410c" stroke-width="2" stroke-dasharray="5 4"/><text x="247.0" y="188.0" font-family="sans-serif" font-size="11" font-weight="700" fill="#64748b" text-anchor="middle">片足を挟む</text><line x1="105.0" y1="208.0" x2="170.0" y2="165.0" stroke="#e0552b" stroke-width="5" stroke-linecap="round" marker-end="url(#ah)"/><text x="137.5" y="176.5" font-family="sans-serif" font-size="12" font-weight="700" fill="#e0552b" text-anchor="middle">起き上がる</text>
  <text x="240" y="338" font-family="sans-serif" font-size="14" font-weight="700" fill="#334155" text-anchor="middle">起き上がってトップへ</text>
</svg>
