<svg xmlns="http://www.w3.org/2000/svg" viewBox="0 0 480 360" role="img" aria-label="首と片腕を三角で囲む">
  <defs>
    <marker id="ah" viewBox="0 0 10 10" refX="8" refY="5" markerWidth="8" markerHeight="8" orient="auto-start-reverse">
      <path d="M0 0L10 5L0 10z" fill="#e0552b"/>
    </marker>
    <filter id="shadow" x="-10%" y="-10%" width="120%" height="120%">
      <feDropShadow dx="0" dy="1" stdDeviation="1.2" flood-color="#0f172a" flood-opacity=".15"/>
    </filter>
  </defs>
  <rect x="2" y="2" width="476" height="356" rx="10" fill="#f6f8fb" stroke="#c8d2dd" stroke-width="2"/>
  <g filter="url(#shadow)">
    <circle cx="38" cy="38" r="20" fill="#2d6cdf"/>
    <text x="38" y="45" font-family="sans-serif" font-size="20" font-weight="bold" fill="#fff" text-anchor="middle">2</text>
  </g>
  <g>
    <circle cx="368" cy="30" r="6" fill="#2d6cdf"/><text x="380" y="34" font-family="sans-serif" font-size="11" fill="#64748b">自分</text>
    <circle cx="414" cy="30" r="6" fill="#8a94a3"/><text x="426" y="34" font-family="sans-serif" font-size="11" fill="#64748b">相手</text>
  </g>
  <polyline points="240.0,172.0 210.0,144.0 190.0,118.0" fill="none" stroke="#8a94a3" stroke-width="12" stroke-linecap="round" stroke-linejoin="round" opacity="0.9"/><circle cx="210.0" cy="144.0" r="5.0" fill="#8a94a3" stroke="none" stroke-width="0"/><circle cx="190.0" cy="118.0" r="4.3" fill="#fff" stroke="#8a94a3" stroke-width="3"/><polyline points="240.0,190.0 214.0,220.0 190.0,250.0" fill="none" stroke="#8a94a3" stroke-width="12" stroke-linecap="round" stroke-linejoin="round" opacity="0.9"/><circle cx="214.0" cy="220.0" r="5.0" fill="#8a94a3" stroke="none" stroke-width="0"/><circle cx="190.0" cy="250.0" r="4.3" fill="#fff" stroke="#8a94a3" stroke-width="3"/><polyline points="332.0,166.0 240.0,182.0" fill="none" stroke="#8a94a3" stroke-width="30" stroke-linecap="round" stroke-linejoin="round" opacity="0.86"/><circle cx="240.0" cy="182.0" r="13.0" fill="#8a94a3" stroke="none" stroke-width="0"/><polyline points="310.0,154.0 276.0,164.0 244.0,164.0" fill="none" stroke="#586474" stroke-width="9" stroke-linecap="round" stroke-linejoin="round" opacity="0.9"/><circle cx="276.0" cy="164.0" r="3.8" fill="#586474" stroke="none" stroke-width="0"/><circle cx="244.0" cy="164.0" r="3.2" fill="#fff" stroke="#586474" stroke-width="3"/><polyline points="308.0,178.0 290.0,192.0 268.0,196.0" fill="none" stroke="#586474" stroke-width="9" stroke-linecap="round" stroke-linejoin="round" opacity="0.9"/><circle cx="290.0" cy="192.0" r="3.8" fill="#586474" stroke="none" stroke-width="0"/><circle cx="268.0" cy="196.0" r="3.2" fill="#fff" stroke="#586474" stroke-width="3"/><circle cx="332.0" cy="166.0" r="18.0" fill="#8a94a3" stroke="none" stroke-width="0"/><circle cx="332.0" cy="166.0" r="8.0" fill="#ffffff" stroke="none" stroke-width="0"/><text x="332.0" y="141.0" font-family="sans-serif" font-size="12" font-weight="700" fill="#8a94a3" text-anchor="middle">相手</text><polyline points="184.0,198.0 240.0,128.0 306.0,150.0" fill="none" stroke="#2d6cdf" stroke-width="12" stroke-linecap="round" stroke-linejoin="round" opacity="0.9"/><circle cx="240.0" cy="128.0" r="5.0" fill="#2d6cdf" stroke="none" stroke-width="0"/><circle cx="306.0" cy="150.0" r="4.3" fill="#fff" stroke="#2d6cdf" stroke-width="3"/><polyline points="184.0,222.0 242.0,198.0 306.0,150.0 276.0,126.0" fill="none" stroke="#2d6cdf" stroke-width="12" stroke-linecap="round" stroke-linejoin="round" opacity="0.9"/><circle cx="242.0" cy="198.0" r="5.0" fill="#2d6cdf" stroke="none" stroke-width="0"/><circle cx="306.0" cy="150.0" r="5.0" fill="#2d6cdf" stroke="none" stroke-width="0"/><circle cx="276.0" cy="126.0" r="4.3" fill="#fff" stroke="#2d6cdf" stroke-width="3"/><polyline points="88.0,216.0 184.0,210.0" fill="none" stroke="#2d6cdf" stroke-width="30" stroke-linecap="round" stroke-linejoin="round" opacity="0.86"/><circle cx="184.0" cy="210.0" r="13.0" fill="#2d6cdf" stroke="none" stroke-width="0"/><polyline points="112.0,205.0 166.0,170.0 244.0,164.0" fill="none" stroke="#174a9c" stroke-width="9" stroke-linecap="round" stroke-linejoin="round" opacity="0.9"/><circle cx="166.0" cy="170.0" r="3.8" fill="#174a9c" stroke="none" stroke-width="0"/><circle cx="244.0" cy="164.0" r="3.2" fill="#fff" stroke="#174a9c" stroke-width="3"/><polyline points="112.0,228.0 168.0,232.0 268.0,196.0" fill="none" stroke="#174a9c" stroke-width="9" stroke-linecap="round" stroke-linejoin="round" opacity="0.9"/><circle cx="168.0" cy="232.0" r="3.8" fill="#174a9c" stroke="none" stroke-width="0"/><circle cx="268.0" cy="196.0" r="3.2" fill="#fff" stroke="#174a9c" stroke-width="3"/><circle cx="88.0" cy="216.0" r="18.0" fill="#2d6cdf" stroke="none" stroke-width="0"/><circle cx="88.0" cy="216.0" r="8.0" fill="#ffffff" stroke="none" stroke-width="0"/><text x="88.0" y="191.0" font-family="sans-serif" font-size="12" font-weight="700" fill="#2d6cdf" text-anchor="middle">自分</text><polygon points="240.0,128.0 306.0,150.0 276.0,126.0" fill="#fee2e2" opacity="0.78" stroke="#c2410c" stroke-width="2" stroke-dasharray="5 4"/><text x="276.0" y="114.0" font-family="sans-serif" font-size="11" font-weight="700" fill="#64748b" text-anchor="middle">首＋片腕を脚で囲む</text><circle cx="306.0" cy="150.0" r="8.0" fill="#fff" stroke="#111827" stroke-width="2"/><circle cx="306.0" cy="150.0" r="3.0" fill="#111827" stroke="none" stroke-width="0"/><text x="306.0" y="137.0" font-family="sans-serif" font-size="11" font-weight="700" fill="#111827" text-anchor="middle">膝裏ロック</text>
  <text x="240" y="338" font-family="sans-serif" font-size="14" font-weight="700" fill="#334155" text-anchor="middle">首と片腕を三角で囲む</text>
</svg>
