<svg xmlns="http://www.w3.org/2000/svg" viewBox="0 0 480 360" role="img" aria-label="袖とかかとを取り崩す">
  <defs>
    <marker id="ah" viewBox="0 0 10 10" refX="8" refY="5" markerWidth="8" markerHeight="8" orient="auto-start-reverse">
      <path d="M0 0L10 5L0 10z" fill="#e0552b"/>
    </marker>
    <filter id="shadow" x="-10%" y="-10%" width="120%" height="120%">
      <feDropShadow dx="0" dy="1" stdDeviation="1.2" flood-color="#0f172a" flood-opacity=".15"/>
    </filter>
  </defs>
  <rect x="2" y="2" width="476" height="356" rx="10" fill="#f6f8fb" stroke="#c8d2dd" stroke-width="2"/>
  <g filter="url(#shadow)">
    <circle cx="38" cy="38" r="20" fill="#2d6cdf"/>
    <text x="38" y="45" font-family="sans-serif" font-size="20" font-weight="bold" fill="#fff" text-anchor="middle">2</text>
  </g>
  <g>
    <circle cx="368" cy="30" r="6" fill="#2d6cdf"/><text x="380" y="34" font-family="sans-serif" font-size="11" fill="#64748b">自分</text>
    <circle cx="414" cy="30" r="6" fill="#8a94a3"/><text x="426" y="34" font-family="sans-serif" font-size="11" fill="#64748b">相手</text>
  </g>
  <polyline points="302.0,166.0 296.0,212.0 284.0,258.0" fill="none" stroke="#8a94a3" stroke-width="12" stroke-linecap="round" stroke-linejoin="round" opacity="0.9"/><circle cx="296.0" cy="212.0" r="5.0" fill="#8a94a3" stroke="none" stroke-width="0"/><circle cx="284.0" cy="258.0" r="4.3" fill="#fff" stroke="#8a94a3" stroke-width="3"/><polyline points="326.0,166.0 352.0,210.0 370.0,252.0" fill="none" stroke="#8a94a3" stroke-width="12" stroke-linecap="round" stroke-linejoin="round" opacity="0.9"/><circle cx="352.0" cy="210.0" r="5.0" fill="#8a94a3" stroke="none" stroke-width="0"/><circle cx="370.0" cy="252.0" r="4.3" fill="#fff" stroke="#8a94a3" stroke-width="3"/><polyline points="314.0,48.0 314.0,160.0" fill="none" stroke="#8a94a3" stroke-width="30" stroke-linecap="round" stroke-linejoin="round" opacity="0.86"/><circle cx="314.0" cy="160.0" r="13.0" fill="#8a94a3" stroke="none" stroke-width="0"/><polyline points="302.0,82.0 286.0,112.0 282.0,118.0" fill="none" stroke="#586474" stroke-width="9" stroke-linecap="round" stroke-linejoin="round" opacity="0.9"/><circle cx="286.0" cy="112.0" r="3.8" fill="#586474" stroke="none" stroke-width="0"/><circle cx="282.0" cy="118.0" r="3.2" fill="#fff" stroke="#586474" stroke-width="3"/><polyline points="324.0,82.0 344.0,122.0 360.0,154.0" fill="none" stroke="#586474" stroke-width="9" stroke-linecap="round" stroke-linejoin="round" opacity="0.9"/><circle cx="344.0" cy="122.0" r="3.8" fill="#586474" stroke="none" stroke-width="0"/><circle cx="360.0" cy="154.0" r="3.2" fill="#fff" stroke="#586474" stroke-width="3"/><circle cx="314.0" cy="48.0" r="18.0" fill="#8a94a3" stroke="none" stroke-width="0"/><circle cx="314.0" cy="48.0" r="8.0" fill="#ffffff" stroke="none" stroke-width="0"/><text x="314.0" y="23.0" font-family="sans-serif" font-size="12" font-weight="700" fill="#8a94a3" text-anchor="middle">相手</text><polyline points="184.0,202.0 250.0,170.0 300.0,204.0 276.0,226.0" fill="none" stroke="#2d6cdf" stroke-width="12" stroke-linecap="round" stroke-linejoin="round" opacity="0.9"/><circle cx="250.0" cy="170.0" r="5.0" fill="#2d6cdf" stroke="none" stroke-width="0"/><circle cx="300.0" cy="204.0" r="5.0" fill="#2d6cdf" stroke="none" stroke-width="0"/><circle cx="276.0" cy="226.0" r="4.3" fill="#fff" stroke="#2d6cdf" stroke-width="3"/><polyline points="184.0,224.0 238.0,228.0 294.0,236.0" fill="none" stroke="#2d6cdf" stroke-width="12" stroke-linecap="round" stroke-linejoin="round" opacity="0.9"/><circle cx="238.0" cy="228.0" r="5.0" fill="#2d6cdf" stroke="none" stroke-width="0"/><circle cx="294.0" cy="236.0" r="4.3" fill="#fff" stroke="#2d6cdf" stroke-width="3"/><polyline points="88.0,218.0 184.0,212.0" fill="none" stroke="#2d6cdf" stroke-width="30" stroke-linecap="round" stroke-linejoin="round" opacity="0.86"/><circle cx="184.0" cy="212.0" r="13.0" fill="#2d6cdf" stroke="none" stroke-width="0"/><polyline points="112.0,205.0 166.0,168.0 282.0,118.0" fill="none" stroke="#174a9c" stroke-width="9" stroke-linecap="round" stroke-linejoin="round" opacity="0.9"/><circle cx="166.0" cy="168.0" r="3.8" fill="#174a9c" stroke="none" stroke-width="0"/><circle cx="282.0" cy="118.0" r="3.2" fill="#fff" stroke="#174a9c" stroke-width="3"/><polyline points="112.0,228.0 164.0,238.0 284.0,226.0" fill="none" stroke="#174a9c" stroke-width="9" stroke-linecap="round" stroke-linejoin="round" opacity="0.9"/><circle cx="164.0" cy="238.0" r="3.8" fill="#174a9c" stroke="none" stroke-width="0"/><circle cx="284.0" cy="226.0" r="3.2" fill="#fff" stroke="#174a9c" stroke-width="3"/><circle cx="88.0" cy="218.0" r="18.0" fill="#2d6cdf" stroke="none" stroke-width="0"/><circle cx="88.0" cy="218.0" r="8.0" fill="#ffffff" stroke="none" stroke-width="0"/><text x="88.0" y="193.0" font-family="sans-serif" font-size="12" font-weight="700" fill="#2d6cdf" text-anchor="middle">自分</text><polygon points="250.0,170.0 302.0,162.0 306.0,214.0 276.0,226.0" fill="#dbeafe" opacity="0.55" stroke="#c2410c" stroke-width="2" stroke-dasharray="5 4"/><text x="270.0" y="154.0" font-family="sans-serif" font-size="11" font-weight="700" fill="#64748b" text-anchor="middle">外から脚を巻く</text><circle cx="282.0" cy="118.0" r="8.0" fill="#fff" stroke="#111827" stroke-width="2"/><circle cx="282.0" cy="118.0" r="3.0" fill="#111827" stroke="none" stroke-width="0"/><text x="282.0" y="105.0" font-family="sans-serif" font-size="11" font-weight="700" fill="#111827" text-anchor="middle">袖</text><circle cx="284.0" cy="226.0" r="8.0" fill="#fff" stroke="#111827" stroke-width="2"/><circle cx="284.0" cy="226.0" r="3.0" fill="#111827" stroke="none" stroke-width="0"/><text x="284.0" y="213.0" font-family="sans-serif" font-size="11" font-weight="700" fill="#111827" text-anchor="middle">かかと</text><line x1="284.0" y1="226.0" x2="238.0" y2="232.0" stroke="#e0552b" stroke-width="5" stroke-linecap="round" marker-end="url(#ah)"/><text x="261.0" y="219.0" font-family="sans-serif" font-size="12" font-weight="700" fill="#e0552b" text-anchor="middle">引く</text>
  <text x="240" y="338" font-family="sans-serif" font-size="14" font-weight="700" fill="#334155" text-anchor="middle">袖とかかとを取り崩す</text>
</svg>
