<svg xmlns="http://www.w3.org/2000/svg" viewBox="0 0 480 360" role="img" aria-label="襟と脇を取り頭を低く">
  <defs>
    <marker id="ah" viewBox="0 0 10 10" refX="8" refY="5" markerWidth="8" markerHeight="8" orient="auto-start-reverse">
      <path d="M0 0L10 5L0 10z" fill="#e0552b"/>
    </marker>
    <filter id="shadow" x="-10%" y="-10%" width="120%" height="120%">
      <feDropShadow dx="0" dy="1" stdDeviation="1.2" flood-color="#0f172a" flood-opacity=".15"/>
    </filter>
  </defs>
  <rect x="2" y="2" width="476" height="356" rx="10" fill="#f6f8fb" stroke="#c8d2dd" stroke-width="2"/>
  <g filter="url(#shadow)">
    <circle cx="38" cy="38" r="20" fill="#2d6cdf"/>
    <text x="38" y="45" font-family="sans-serif" font-size="20" font-weight="bold" fill="#fff" text-anchor="middle">2</text>
  </g>
  <g>
    <circle cx="368" cy="30" r="6" fill="#2d6cdf"/><text x="380" y="34" font-family="sans-serif" font-size="11" fill="#64748b">自分</text>
    <circle cx="414" cy="30" r="6" fill="#8a94a3"/><text x="426" y="34" font-family="sans-serif" font-size="11" fill="#64748b">相手</text>
  </g>
  <polyline points="214.0,190.0 268.0,180.0 322.0,166.0" fill="none" stroke="#8a94a3" stroke-width="12" stroke-linecap="round" stroke-linejoin="round" opacity="0.9"/><circle cx="268.0" cy="180.0" r="5.0" fill="#8a94a3" stroke="none" stroke-width="0"/><circle cx="322.0" cy="166.0" r="4.3" fill="#fff" stroke="#8a94a3" stroke-width="3"/><polyline points="214.0,218.0 270.0,236.0 326.0,254.0" fill="none" stroke="#8a94a3" stroke-width="12" stroke-linecap="round" stroke-linejoin="round" opacity="0.9"/><circle cx="270.0" cy="236.0" r="5.0" fill="#8a94a3" stroke="none" stroke-width="0"/><circle cx="326.0" cy="254.0" r="4.3" fill="#fff" stroke="#8a94a3" stroke-width="3"/><polyline points="82.0,208.0 214.0,204.0" fill="none" stroke="#8a94a3" stroke-width="30" stroke-linecap="round" stroke-linejoin="round" opacity="0.86"/><circle cx="214.0" cy="204.0" r="13.0" fill="#8a94a3" stroke="none" stroke-width="0"/><polyline points="112.0,188.0 166.0,154.0 224.0,148.0" fill="none" stroke="#586474" stroke-width="9" stroke-linecap="round" stroke-linejoin="round" opacity="0.9"/><circle cx="166.0" cy="154.0" r="3.8" fill="#586474" stroke="none" stroke-width="0"/><circle cx="224.0" cy="148.0" r="3.2" fill="#fff" stroke="#586474" stroke-width="3"/><polyline points="112.0,226.0 160.0,244.0 218.0,230.0" fill="none" stroke="#586474" stroke-width="9" stroke-linecap="round" stroke-linejoin="round" opacity="0.9"/><circle cx="160.0" cy="244.0" r="3.8" fill="#586474" stroke="none" stroke-width="0"/><circle cx="218.0" cy="230.0" r="3.2" fill="#fff" stroke="#586474" stroke-width="3"/><circle cx="82.0" cy="208.0" r="18.0" fill="#8a94a3" stroke="none" stroke-width="0"/><circle cx="82.0" cy="208.0" r="8.0" fill="#ffffff" stroke="none" stroke-width="0"/><text x="82.0" y="183.0" font-family="sans-serif" font-size="12" font-weight="700" fill="#8a94a3" text-anchor="middle">相手</text><polyline points="310.0,182.0 262.0,196.0 222.0,212.0" fill="none" stroke="#2d6cdf" stroke-width="12" stroke-linecap="round" stroke-linejoin="round" opacity="0.9"/><circle cx="262.0" cy="196.0" r="5.0" fill="#2d6cdf" stroke="none" stroke-width="0"/><circle cx="222.0" cy="212.0" r="4.3" fill="#fff" stroke="#2d6cdf" stroke-width="3"/><polyline points="334.0,184.0 362.0,222.0 388.0,256.0" fill="none" stroke="#2d6cdf" stroke-width="12" stroke-linecap="round" stroke-linejoin="round" opacity="0.9"/><circle cx="362.0" cy="222.0" r="5.0" fill="#2d6cdf" stroke="none" stroke-width="0"/><circle cx="388.0" cy="256.0" r="4.3" fill="#fff" stroke="#2d6cdf" stroke-width="3"/><polyline points="340.0,70.0 322.0,176.0" fill="none" stroke="#2d6cdf" stroke-width="30" stroke-linecap="round" stroke-linejoin="round" opacity="0.86"/><circle cx="322.0" cy="176.0" r="13.0" fill="#2d6cdf" stroke="none" stroke-width="0"/><polyline points="326.0,100.0 300.0,134.0 258.0,148.0" fill="none" stroke="#174a9c" stroke-width="9" stroke-linecap="round" stroke-linejoin="round" opacity="0.9"/><circle cx="300.0" cy="134.0" r="3.8" fill="#174a9c" stroke="none" stroke-width="0"/><circle cx="258.0" cy="148.0" r="3.2" fill="#fff" stroke="#174a9c" stroke-width="3"/><polyline points="350.0,112.0 328.0,164.0 276.0,202.0" fill="none" stroke="#174a9c" stroke-width="9" stroke-linecap="round" stroke-linejoin="round" opacity="0.9"/><circle cx="328.0" cy="164.0" r="3.8" fill="#174a9c" stroke="none" stroke-width="0"/><circle cx="276.0" cy="202.0" r="3.2" fill="#fff" stroke="#174a9c" stroke-width="3"/><circle cx="340.0" cy="70.0" r="18.0" fill="#2d6cdf" stroke="none" stroke-width="0"/><circle cx="340.0" cy="70.0" r="8.0" fill="#ffffff" stroke="none" stroke-width="0"/><text x="340.0" y="45.0" font-family="sans-serif" font-size="12" font-weight="700" fill="#2d6cdf" text-anchor="middle">自分</text><polygon points="262.0,188.0 314.0,174.0 326.0,206.0 252.0,222.0" fill="#dbeafe" opacity="0.48" stroke="#c2410c" stroke-width="2" stroke-dasharray="5 4"/><text x="294.0" y="168.0" font-family="sans-serif" font-size="11" font-weight="700" fill="#64748b" text-anchor="middle">膝を太ももに通す</text><circle cx="258.0" cy="148.0" r="8.0" fill="#fff" stroke="#111827" stroke-width="2"/><circle cx="258.0" cy="148.0" r="3.0" fill="#111827" stroke="none" stroke-width="0"/><text x="258.0" y="135.0" font-family="sans-serif" font-size="11" font-weight="700" fill="#111827" text-anchor="middle">襟</text><circle cx="276.0" cy="202.0" r="8.0" fill="#fff" stroke="#111827" stroke-width="2"/><circle cx="276.0" cy="202.0" r="3.0" fill="#111827" stroke="none" stroke-width="0"/><text x="276.0" y="189.0" font-family="sans-serif" font-size="11" font-weight="700" fill="#111827" text-anchor="middle">脇</text><line x1="326.0" y1="100.0" x2="268.0" y2="160.0" stroke="#e0552b" stroke-width="5" stroke-linecap="round" marker-end="url(#ah)"/><text x="297.0" y="120.0" font-family="sans-serif" font-size="12" font-weight="700" fill="#e0552b" text-anchor="middle">頭を低く</text>
  <text x="240" y="338" font-family="sans-serif" font-size="14" font-weight="700" fill="#334155" text-anchor="middle">襟と脇を取り頭を低く</text>
</svg>
