<svg xmlns="http://www.w3.org/2000/svg" viewBox="0 0 400 300" role="img" aria-label="両袖を握り足裏を相手のヒジへ">
  <defs>
    <marker id="ah" viewBox="0 0 10 10" refX="8" refY="5" markerWidth="7" markerHeight="7" orient="auto-start-reverse">
      <path d="M0 0L10 5L0 10z" fill="#e0552b"/>
    </marker>
  </defs>
  <rect x="2" y="2" width="396" height="296" rx="12" fill="#f4f6f8" stroke="#c3ccd6" stroke-width="2"/>
  <circle cx="38" cy="38" r="20" fill="#2d6cdf"/>
  <text x="38" y="45" font-family="sans-serif" font-size="20" font-weight="bold" fill="#fff" text-anchor="middle">1</text>
  <g>
    <circle cx="300" cy="30" r="6" fill="#2d6cdf"/><text x="312" y="34" font-family="sans-serif" font-size="11" fill="#6b7888">自分</text>
    <circle cx="345" cy="30" r="6" fill="#8a94a3"/><text x="357" y="34" font-family="sans-serif" font-size="11" fill="#6b7888">相手</text>
  </g>
  <line x1="115" y1="210" x2="205" y2="210" stroke="#2d6cdf" stroke-width="24" stroke-linecap="round" opacity="0.82"/><circle cx="115" cy="210" r="15" fill="#2d6cdf"/><text x="115" y="190" font-family="sans-serif" font-size="11" font-weight="bold" fill="#2d6cdf" text-anchor="middle">自分</text><line x1="300" y1="120" x2="251" y2="198" stroke="#8a94a3" stroke-width="24" stroke-linecap="round" opacity="0.82"/><circle cx="300" cy="120" r="15" fill="#8a94a3"/><text x="300" y="100" font-family="sans-serif" font-size="11" font-weight="bold" fill="#8a94a3" text-anchor="middle">相手</text><line x1="205" y1="205" x2="258" y2="150" stroke="#2d6cdf" stroke-width="7" stroke-linecap="round" opacity="0.75"/><line x1="205" y1="218" x2="262" y2="175" stroke="#2d6cdf" stroke-width="7" stroke-linecap="round" opacity="0.75"/><circle cx="258" cy="150" r="6" fill="#fff" stroke="#1f2933" stroke-width="2"/><circle cx="258" cy="150" r="2" fill="#1f2933"/><circle cx="262" cy="178" r="6" fill="#fff" stroke="#1f2933" stroke-width="2"/><circle cx="262" cy="178" r="2" fill="#1f2933"/>
  <text x="200" y="288" font-family="sans-serif" font-size="13" fill="#46505c" text-anchor="middle">両袖を握り足裏を相手のヒジへ</text>
</svg>
