<svg xmlns="http://www.w3.org/2000/svg" viewBox="0 0 480 360" role="img" aria-label="両袖と足裏で腕を制御">
  <defs>
    <marker id="ah" viewBox="0 0 10 10" refX="8" refY="5" markerWidth="8" markerHeight="8" orient="auto-start-reverse">
      <path d="M0 0L10 5L0 10z" fill="#e0552b"/>
    </marker>
    <filter id="shadow" x="-10%" y="-10%" width="120%" height="120%">
      <feDropShadow dx="0" dy="1" stdDeviation="1.2" flood-color="#0f172a" flood-opacity=".15"/>
    </filter>
  </defs>
  <rect x="2" y="2" width="476" height="356" rx="10" fill="#f6f8fb" stroke="#c8d2dd" stroke-width="2"/>
  <g filter="url(#shadow)">
    <circle cx="38" cy="38" r="20" fill="#2d6cdf"/>
    <text x="38" y="45" font-family="sans-serif" font-size="20" font-weight="bold" fill="#fff" text-anchor="middle">1</text>
  </g>
  <g>
    <circle cx="368" cy="30" r="6" fill="#2d6cdf"/><text x="380" y="34" font-family="sans-serif" font-size="11" fill="#64748b">自分</text>
    <circle cx="414" cy="30" r="6" fill="#8a94a3"/><text x="426" y="34" font-family="sans-serif" font-size="11" fill="#64748b">相手</text>
  </g>
  <polyline points="270.0,176.0 248.0,222.0 228.0,260.0" fill="none" stroke="#8a94a3" stroke-width="12" stroke-linecap="round" stroke-linejoin="round" opacity="0.9"/><circle cx="248.0" cy="222.0" r="5.0" fill="#8a94a3" stroke="none" stroke-width="0"/><circle cx="228.0" cy="260.0" r="4.3" fill="#fff" stroke="#8a94a3" stroke-width="3"/><polyline points="292.0,176.0 318.0,220.0 340.0,260.0" fill="none" stroke="#8a94a3" stroke-width="12" stroke-linecap="round" stroke-linejoin="round" opacity="0.9"/><circle cx="318.0" cy="220.0" r="5.0" fill="#8a94a3" stroke="none" stroke-width="0"/><circle cx="340.0" cy="260.0" r="4.3" fill="#fff" stroke="#8a94a3" stroke-width="3"/><polyline points="330.0,106.0 282.0,172.0" fill="none" stroke="#8a94a3" stroke-width="30" stroke-linecap="round" stroke-linejoin="round" opacity="0.86"/><circle cx="282.0" cy="172.0" r="13.0" fill="#8a94a3" stroke="none" stroke-width="0"/><polyline points="318.0,130.0 292.0,134.0 258.0,134.0" fill="none" stroke="#586474" stroke-width="9" stroke-linecap="round" stroke-linejoin="round" opacity="0.9"/><circle cx="292.0" cy="134.0" r="3.8" fill="#586474" stroke="none" stroke-width="0"/><circle cx="258.0" cy="134.0" r="3.2" fill="#fff" stroke="#586474" stroke-width="3"/><polyline points="313.0,154.0 292.0,176.0 270.0,190.0" fill="none" stroke="#586474" stroke-width="9" stroke-linecap="round" stroke-linejoin="round" opacity="0.9"/><circle cx="292.0" cy="176.0" r="3.8" fill="#586474" stroke="none" stroke-width="0"/><circle cx="270.0" cy="190.0" r="3.2" fill="#fff" stroke="#586474" stroke-width="3"/><circle cx="330.0" cy="106.0" r="18.0" fill="#8a94a3" stroke="none" stroke-width="0"/><circle cx="330.0" cy="106.0" r="8.0" fill="#ffffff" stroke="none" stroke-width="0"/><text x="330.0" y="81.0" font-family="sans-serif" font-size="12" font-weight="700" fill="#8a94a3" text-anchor="middle">相手</text><polyline points="184.0,196.0 226.0,154.0 276.0,138.0" fill="none" stroke="#2d6cdf" stroke-width="12" stroke-linecap="round" stroke-linejoin="round" opacity="0.9"/><circle cx="226.0" cy="154.0" r="5.0" fill="#2d6cdf" stroke="none" stroke-width="0"/><circle cx="276.0" cy="138.0" r="4.3" fill="#fff" stroke="#2d6cdf" stroke-width="3"/><polyline points="186.0,222.0 230.0,206.0 284.0,192.0" fill="none" stroke="#2d6cdf" stroke-width="12" stroke-linecap="round" stroke-linejoin="round" opacity="0.9"/><circle cx="230.0" cy="206.0" r="5.0" fill="#2d6cdf" stroke="none" stroke-width="0"/><circle cx="284.0" cy="192.0" r="4.3" fill="#fff" stroke="#2d6cdf" stroke-width="3"/><polyline points="88.0,216.0 184.0,209.0" fill="none" stroke="#2d6cdf" stroke-width="30" stroke-linecap="round" stroke-linejoin="round" opacity="0.86"/><circle cx="184.0" cy="209.0" r="13.0" fill="#2d6cdf" stroke="none" stroke-width="0"/><polyline points="112.0,203.0 165.0,166.0 258.0,134.0" fill="none" stroke="#174a9c" stroke-width="9" stroke-linecap="round" stroke-linejoin="round" opacity="0.9"/><circle cx="165.0" cy="166.0" r="3.8" fill="#174a9c" stroke="none" stroke-width="0"/><circle cx="258.0" cy="134.0" r="3.2" fill="#fff" stroke="#174a9c" stroke-width="3"/><polyline points="112.0,227.0 168.0,236.0 270.0,190.0" fill="none" stroke="#174a9c" stroke-width="9" stroke-linecap="round" stroke-linejoin="round" opacity="0.9"/><circle cx="168.0" cy="236.0" r="3.8" fill="#174a9c" stroke="none" stroke-width="0"/><circle cx="270.0" cy="190.0" r="3.2" fill="#fff" stroke="#174a9c" stroke-width="3"/><circle cx="88.0" cy="216.0" r="18.0" fill="#2d6cdf" stroke="none" stroke-width="0"/><circle cx="88.0" cy="216.0" r="8.0" fill="#ffffff" stroke="none" stroke-width="0"/><text x="88.0" y="191.0" font-family="sans-serif" font-size="12" font-weight="700" fill="#2d6cdf" text-anchor="middle">自分</text><circle cx="258.0" cy="134.0" r="8.0" fill="#fff" stroke="#111827" stroke-width="2"/><circle cx="258.0" cy="134.0" r="3.0" fill="#111827" stroke="none" stroke-width="0"/><text x="258.0" y="121.0" font-family="sans-serif" font-size="11" font-weight="700" fill="#111827" text-anchor="middle">袖</text><circle cx="270.0" cy="190.0" r="8.0" fill="#fff" stroke="#111827" stroke-width="2"/><circle cx="270.0" cy="190.0" r="3.0" fill="#111827" stroke="none" stroke-width="0"/><text x="270.0" y="177.0" font-family="sans-serif" font-size="11" font-weight="700" fill="#111827" text-anchor="middle">袖</text><text x="274.0" y="120.0" font-family="sans-serif" font-size="11" font-weight="700" fill="#64748b" text-anchor="middle">足裏を上腕へ</text>
  <text x="240" y="338" font-family="sans-serif" font-size="14" font-weight="700" fill="#334155" text-anchor="middle">両袖と足裏で腕を制御</text>
</svg>
