<svg xmlns="http://www.w3.org/2000/svg" viewBox="0 0 480 360" role="img" aria-label="座って両フックを内腿へ">
  <defs>
    <marker id="ah" viewBox="0 0 10 10" refX="8" refY="5" markerWidth="8" markerHeight="8" orient="auto-start-reverse">
      <path d="M0 0L10 5L0 10z" fill="#e0552b"/>
    </marker>
    <filter id="shadow" x="-10%" y="-10%" width="120%" height="120%">
      <feDropShadow dx="0" dy="1" stdDeviation="1.2" flood-color="#0f172a" flood-opacity=".15"/>
    </filter>
  </defs>
  <rect x="2" y="2" width="476" height="356" rx="10" fill="#f6f8fb" stroke="#c8d2dd" stroke-width="2"/>
  <g filter="url(#shadow)">
    <circle cx="38" cy="38" r="20" fill="#2d6cdf"/>
    <text x="38" y="45" font-family="sans-serif" font-size="20" font-weight="bold" fill="#fff" text-anchor="middle">1</text>
  </g>
  <g>
    <circle cx="368" cy="30" r="6" fill="#2d6cdf"/><text x="380" y="34" font-family="sans-serif" font-size="11" fill="#64748b">自分</text>
    <circle cx="414" cy="30" r="6" fill="#8a94a3"/><text x="426" y="34" font-family="sans-serif" font-size="11" fill="#64748b">相手</text>
  </g>
  <polyline points="270.0,188.0 238.0,220.0 214.0,252.0" fill="none" stroke="#8a94a3" stroke-width="12" stroke-linecap="round" stroke-linejoin="round" opacity="0.9"/><circle cx="238.0" cy="220.0" r="5.0" fill="#8a94a3" stroke="none" stroke-width="0"/><circle cx="214.0" cy="252.0" r="4.3" fill="#fff" stroke="#8a94a3" stroke-width="3"/><polyline points="292.0,190.0 268.0,230.0 252.0,268.0" fill="none" stroke="#8a94a3" stroke-width="12" stroke-linecap="round" stroke-linejoin="round" opacity="0.9"/><circle cx="268.0" cy="230.0" r="5.0" fill="#8a94a3" stroke="none" stroke-width="0"/><circle cx="252.0" cy="268.0" r="4.3" fill="#fff" stroke="#8a94a3" stroke-width="3"/><polyline points="306.0,104.0 282.0,184.0" fill="none" stroke="#8a94a3" stroke-width="30" stroke-linecap="round" stroke-linejoin="round" opacity="0.86"/><circle cx="282.0" cy="184.0" r="13.0" fill="#8a94a3" stroke="none" stroke-width="0"/><polyline points="290.0,126.0 260.0,142.0 232.0,148.0" fill="none" stroke="#586474" stroke-width="9" stroke-linecap="round" stroke-linejoin="round" opacity="0.9"/><circle cx="260.0" cy="142.0" r="3.8" fill="#586474" stroke="none" stroke-width="0"/><circle cx="232.0" cy="148.0" r="3.2" fill="#fff" stroke="#586474" stroke-width="3"/><polyline points="304.0,150.0 270.0,182.0 230.0,212.0" fill="none" stroke="#586474" stroke-width="9" stroke-linecap="round" stroke-linejoin="round" opacity="0.9"/><circle cx="270.0" cy="182.0" r="3.8" fill="#586474" stroke="none" stroke-width="0"/><circle cx="230.0" cy="212.0" r="3.2" fill="#fff" stroke="#586474" stroke-width="3"/><circle cx="306.0" cy="104.0" r="18.0" fill="#8a94a3" stroke="none" stroke-width="0"/><circle cx="306.0" cy="104.0" r="8.0" fill="#ffffff" stroke="none" stroke-width="0"/><text x="306.0" y="79.0" font-family="sans-serif" font-size="12" font-weight="700" fill="#8a94a3" text-anchor="middle">相手</text><polyline points="166.0,226.0 204.0,192.0 242.0,178.0" fill="none" stroke="#2d6cdf" stroke-width="12" stroke-linecap="round" stroke-linejoin="round" opacity="0.9"/><circle cx="204.0" cy="192.0" r="5.0" fill="#2d6cdf" stroke="none" stroke-width="0"/><circle cx="242.0" cy="178.0" r="4.3" fill="#fff" stroke="#2d6cdf" stroke-width="3"/><polyline points="180.0,242.0 220.0,220.0 262.0,204.0" fill="none" stroke="#2d6cdf" stroke-width="12" stroke-linecap="round" stroke-linejoin="round" opacity="0.9"/><circle cx="220.0" cy="220.0" r="5.0" fill="#2d6cdf" stroke="none" stroke-width="0"/><circle cx="262.0" cy="204.0" r="4.3" fill="#fff" stroke="#2d6cdf" stroke-width="3"/><polyline points="104.0,212.0 174.0,234.0" fill="none" stroke="#2d6cdf" stroke-width="30" stroke-linecap="round" stroke-linejoin="round" opacity="0.86"/><circle cx="174.0" cy="234.0" r="13.0" fill="#2d6cdf" stroke="none" stroke-width="0"/><polyline points="128.0,196.0 176.0,158.0 232.0,148.0" fill="none" stroke="#174a9c" stroke-width="9" stroke-linecap="round" stroke-linejoin="round" opacity="0.9"/><circle cx="176.0" cy="158.0" r="3.8" fill="#174a9c" stroke="none" stroke-width="0"/><circle cx="232.0" cy="148.0" r="3.2" fill="#fff" stroke="#174a9c" stroke-width="3"/><polyline points="126.0,222.0 166.0,230.0 220.0,214.0" fill="none" stroke="#174a9c" stroke-width="9" stroke-linecap="round" stroke-linejoin="round" opacity="0.9"/><circle cx="166.0" cy="230.0" r="3.8" fill="#174a9c" stroke="none" stroke-width="0"/><circle cx="220.0" cy="214.0" r="3.2" fill="#fff" stroke="#174a9c" stroke-width="3"/><circle cx="104.0" cy="212.0" r="18.0" fill="#2d6cdf" stroke="none" stroke-width="0"/><circle cx="104.0" cy="212.0" r="8.0" fill="#ffffff" stroke="none" stroke-width="0"/><text x="104.0" y="187.0" font-family="sans-serif" font-size="12" font-weight="700" fill="#2d6cdf" text-anchor="middle">自分</text><circle cx="232.0" cy="148.0" r="8.0" fill="#fff" stroke="#111827" stroke-width="2"/><circle cx="232.0" cy="148.0" r="3.0" fill="#111827" stroke="none" stroke-width="0"/><text x="232.0" y="135.0" font-family="sans-serif" font-size="11" font-weight="700" fill="#111827" text-anchor="middle">脇</text><polygon points="204.0,190.0 262.0,174.0 272.0,204.0 218.0,224.0" fill="#dbeafe" opacity="0.55" stroke="#c2410c" stroke-width="2" stroke-dasharray="5 4"/><text x="236.0" y="164.0" font-family="sans-serif" font-size="11" font-weight="700" fill="#64748b" text-anchor="middle">足甲を内腿へ</text>
  <text x="240" y="338" font-family="sans-serif" font-size="14" font-weight="700" fill="#334155" text-anchor="middle">座って両フックを内腿へ</text>
</svg>
