<svg xmlns="http://www.w3.org/2000/svg" viewBox="0 0 480 360" role="img" aria-label="マウントで腕を分離する">
  <defs>
    <marker id="ah" viewBox="0 0 10 10" refX="8" refY="5" markerWidth="8" markerHeight="8" orient="auto-start-reverse">
      <path d="M0 0L10 5L0 10z" fill="#e0552b"/>
    </marker>
    <filter id="shadow" x="-10%" y="-10%" width="120%" height="120%">
      <feDropShadow dx="0" dy="1" stdDeviation="1.2" flood-color="#0f172a" flood-opacity=".15"/>
    </filter>
  </defs>
  <rect x="2" y="2" width="476" height="356" rx="10" fill="#f6f8fb" stroke="#c8d2dd" stroke-width="2"/>
  <g filter="url(#shadow)">
    <circle cx="38" cy="38" r="20" fill="#2d6cdf"/>
    <text x="38" y="45" font-family="sans-serif" font-size="20" font-weight="bold" fill="#fff" text-anchor="middle">1</text>
  </g>
  <g>
    <circle cx="368" cy="30" r="6" fill="#2d6cdf"/><text x="380" y="34" font-family="sans-serif" font-size="11" fill="#64748b">自分</text>
    <circle cx="414" cy="30" r="6" fill="#8a94a3"/><text x="426" y="34" font-family="sans-serif" font-size="11" fill="#64748b">相手</text>
  </g>
  <polyline points="246.0,181.0 288.0,156.0 326.0,146.0" fill="none" stroke="#8a94a3" stroke-width="12" stroke-linecap="round" stroke-linejoin="round" opacity="0.9"/><circle cx="288.0" cy="156.0" r="5.0" fill="#8a94a3" stroke="none" stroke-width="0"/><circle cx="326.0" cy="146.0" r="4.3" fill="#fff" stroke="#8a94a3" stroke-width="3"/><polyline points="246.0,219.0 292.0,236.0 330.0,250.0" fill="none" stroke="#8a94a3" stroke-width="12" stroke-linecap="round" stroke-linejoin="round" opacity="0.9"/><circle cx="292.0" cy="236.0" r="5.0" fill="#8a94a3" stroke="none" stroke-width="0"/><circle cx="330.0" cy="250.0" r="4.3" fill="#fff" stroke="#8a94a3" stroke-width="3"/><polyline points="94.0,200.0 246.0,200.0" fill="none" stroke="#8a94a3" stroke-width="30" stroke-linecap="round" stroke-linejoin="round" opacity="0.86"/><circle cx="246.0" cy="200.0" r="13.0" fill="#8a94a3" stroke="none" stroke-width="0"/><polyline points="142.0,177.0 176.0,142.0 214.0,134.0" fill="none" stroke="#586474" stroke-width="9" stroke-linecap="round" stroke-linejoin="round" opacity="0.9"/><circle cx="176.0" cy="142.0" r="3.8" fill="#586474" stroke="none" stroke-width="0"/><circle cx="214.0" cy="134.0" r="3.2" fill="#fff" stroke="#586474" stroke-width="3"/><polyline points="142.0,222.0 176.0,246.0 218.0,250.0" fill="none" stroke="#586474" stroke-width="9" stroke-linecap="round" stroke-linejoin="round" opacity="0.9"/><circle cx="176.0" cy="246.0" r="3.8" fill="#586474" stroke="none" stroke-width="0"/><circle cx="218.0" cy="250.0" r="3.2" fill="#fff" stroke="#586474" stroke-width="3"/><circle cx="94.0" cy="200.0" r="18.0" fill="#8a94a3" stroke="none" stroke-width="0"/><circle cx="94.0" cy="200.0" r="8.0" fill="#ffffff" stroke="none" stroke-width="0"/><text x="94.0" y="175.0" font-family="sans-serif" font-size="12" font-weight="700" fill="#8a94a3" text-anchor="middle">相手</text><polyline points="214.0,184.0 190.0,214.0 166.0,238.0" fill="none" stroke="#2d6cdf" stroke-width="12" stroke-linecap="round" stroke-linejoin="round" opacity="0.9"/><circle cx="190.0" cy="214.0" r="5.0" fill="#2d6cdf" stroke="none" stroke-width="0"/><circle cx="166.0" cy="238.0" r="4.3" fill="#fff" stroke="#2d6cdf" stroke-width="3"/><polyline points="242.0,184.0 270.0,214.0 296.0,238.0" fill="none" stroke="#2d6cdf" stroke-width="12" stroke-linecap="round" stroke-linejoin="round" opacity="0.9"/><circle cx="270.0" cy="214.0" r="5.0" fill="#2d6cdf" stroke="none" stroke-width="0"/><circle cx="296.0" cy="238.0" r="4.3" fill="#fff" stroke="#2d6cdf" stroke-width="3"/><polyline points="226.0,88.0 228.0,176.0" fill="none" stroke="#2d6cdf" stroke-width="30" stroke-linecap="round" stroke-linejoin="round" opacity="0.86"/><circle cx="228.0" cy="176.0" r="13.0" fill="#2d6cdf" stroke="none" stroke-width="0"/><polyline points="212.0,122.0 192.0,151.0 180.0,176.0" fill="none" stroke="#174a9c" stroke-width="9" stroke-linecap="round" stroke-linejoin="round" opacity="0.9"/><circle cx="192.0" cy="151.0" r="3.8" fill="#174a9c" stroke="none" stroke-width="0"/><circle cx="180.0" cy="176.0" r="3.2" fill="#fff" stroke="#174a9c" stroke-width="3"/><polyline points="240.0,122.0 265.0,150.0 282.0,178.0" fill="none" stroke="#174a9c" stroke-width="9" stroke-linecap="round" stroke-linejoin="round" opacity="0.9"/><circle cx="265.0" cy="150.0" r="3.8" fill="#174a9c" stroke="none" stroke-width="0"/><circle cx="282.0" cy="178.0" r="3.2" fill="#fff" stroke="#174a9c" stroke-width="3"/><circle cx="226.0" cy="88.0" r="18.0" fill="#2d6cdf" stroke="none" stroke-width="0"/><circle cx="226.0" cy="88.0" r="8.0" fill="#ffffff" stroke="none" stroke-width="0"/><text x="226.0" y="63.0" font-family="sans-serif" font-size="12" font-weight="700" fill="#2d6cdf" text-anchor="middle">自分</text><polygon points="174.0,160.0 282.0,160.0 300.0,236.0 160.0,236.0" fill="#dbeafe" opacity="0.36" stroke="#c2410c" stroke-width="2" stroke-dasharray="5 4"/><text x="228.0" y="258.0" font-family="sans-serif" font-size="11" font-weight="700" fill="#64748b" text-anchor="middle">腰で胸をまたぐ</text><polygon points="168.0,136.0 226.0,126.0 230.0,148.0 176.0,160.0" fill="#fee2e2" opacity="0.7" stroke="#c2410c" stroke-width="2" stroke-dasharray="5 4"/><circle cx="214.0" cy="134.0" r="8.0" fill="#fff" stroke="#111827" stroke-width="2"/><circle cx="214.0" cy="134.0" r="3.0" fill="#111827" stroke="none" stroke-width="0"/><text x="214.0" y="121.0" font-family="sans-serif" font-size="11" font-weight="700" fill="#111827" text-anchor="middle">腕</text>
  <text x="240" y="338" font-family="sans-serif" font-size="14" font-weight="700" fill="#334155" text-anchor="middle">マウントで腕を分離する</text>
</svg>
