<svg xmlns="http://www.w3.org/2000/svg" viewBox="0 0 480 360" role="img" aria-label="後ろへ倒れて腕を伸ばす">
  <defs>
    <marker id="ah" viewBox="0 0 10 10" refX="8" refY="5" markerWidth="8" markerHeight="8" orient="auto-start-reverse">
      <path d="M0 0L10 5L0 10z" fill="#e0552b"/>
    </marker>
    <filter id="shadow" x="-10%" y="-10%" width="120%" height="120%">
      <feDropShadow dx="0" dy="1" stdDeviation="1.2" flood-color="#0f172a" flood-opacity=".15"/>
    </filter>
  </defs>
  <rect x="2" y="2" width="476" height="356" rx="10" fill="#f6f8fb" stroke="#c8d2dd" stroke-width="2"/>
  <g filter="url(#shadow)">
    <circle cx="38" cy="38" r="20" fill="#2d6cdf"/>
    <text x="38" y="45" font-family="sans-serif" font-size="20" font-weight="bold" fill="#fff" text-anchor="middle">3</text>
  </g>
  <g>
    <circle cx="368" cy="30" r="6" fill="#2d6cdf"/><text x="380" y="34" font-family="sans-serif" font-size="11" fill="#64748b">自分</text>
    <circle cx="414" cy="30" r="6" fill="#8a94a3"/><text x="426" y="34" font-family="sans-serif" font-size="11" fill="#64748b">相手</text>
  </g>
  <polyline points="232.0,172.0 198.0,144.0 172.0,118.0" fill="none" stroke="#8a94a3" stroke-width="12" stroke-linecap="round" stroke-linejoin="round" opacity="0.9"/><circle cx="198.0" cy="144.0" r="5.0" fill="#8a94a3" stroke="none" stroke-width="0"/><circle cx="172.0" cy="118.0" r="4.3" fill="#fff" stroke="#8a94a3" stroke-width="3"/><polyline points="232.0,190.0 204.0,222.0 176.0,250.0" fill="none" stroke="#8a94a3" stroke-width="12" stroke-linecap="round" stroke-linejoin="round" opacity="0.9"/><circle cx="204.0" cy="222.0" r="5.0" fill="#8a94a3" stroke="none" stroke-width="0"/><circle cx="176.0" cy="250.0" r="4.3" fill="#fff" stroke="#8a94a3" stroke-width="3"/><polyline points="320.0,172.0 232.0,182.0" fill="none" stroke="#8a94a3" stroke-width="30" stroke-linecap="round" stroke-linejoin="round" opacity="0.86"/><circle cx="232.0" cy="182.0" r="13.0" fill="#8a94a3" stroke="none" stroke-width="0"/><polyline points="296.0,160.0 246.0,158.0 188.0,160.0" fill="none" stroke="#586474" stroke-width="9" stroke-linecap="round" stroke-linejoin="round" opacity="0.9"/><circle cx="246.0" cy="158.0" r="3.8" fill="#586474" stroke="none" stroke-width="0"/><circle cx="188.0" cy="160.0" r="3.2" fill="#fff" stroke="#586474" stroke-width="3"/><polyline points="296.0,184.0 260.0,208.0 232.0,236.0" fill="none" stroke="#586474" stroke-width="9" stroke-linecap="round" stroke-linejoin="round" opacity="0.9"/><circle cx="260.0" cy="208.0" r="3.8" fill="#586474" stroke="none" stroke-width="0"/><circle cx="232.0" cy="236.0" r="3.2" fill="#fff" stroke="#586474" stroke-width="3"/><circle cx="320.0" cy="172.0" r="18.0" fill="#8a94a3" stroke="none" stroke-width="0"/><circle cx="320.0" cy="172.0" r="8.0" fill="#ffffff" stroke="none" stroke-width="0"/><text x="320.0" y="147.0" font-family="sans-serif" font-size="12" font-weight="700" fill="#8a94a3" text-anchor="middle">相手</text><polyline points="184.0,176.0 244.0,132.0 312.0,132.0" fill="none" stroke="#2d6cdf" stroke-width="12" stroke-linecap="round" stroke-linejoin="round" opacity="0.9"/><circle cx="244.0" cy="132.0" r="5.0" fill="#2d6cdf" stroke="none" stroke-width="0"/><circle cx="312.0" cy="132.0" r="4.3" fill="#fff" stroke="#2d6cdf" stroke-width="3"/><polyline points="204.0,180.0 258.0,194.0 320.0,204.0" fill="none" stroke="#2d6cdf" stroke-width="12" stroke-linecap="round" stroke-linejoin="round" opacity="0.9"/><circle cx="258.0" cy="194.0" r="5.0" fill="#2d6cdf" stroke="none" stroke-width="0"/><circle cx="320.0" cy="204.0" r="4.3" fill="#fff" stroke="#2d6cdf" stroke-width="3"/><polyline points="190.0,78.0 194.0,168.0" fill="none" stroke="#2d6cdf" stroke-width="30" stroke-linecap="round" stroke-linejoin="round" opacity="0.86"/><circle cx="194.0" cy="168.0" r="13.0" fill="#2d6cdf" stroke="none" stroke-width="0"/><polyline points="178.0,116.0 178.0,145.0 188.0,160.0" fill="none" stroke="#174a9c" stroke-width="9" stroke-linecap="round" stroke-linejoin="round" opacity="0.9"/><circle cx="178.0" cy="145.0" r="3.8" fill="#174a9c" stroke="none" stroke-width="0"/><circle cx="188.0" cy="160.0" r="3.2" fill="#fff" stroke="#174a9c" stroke-width="3"/><polyline points="204.0,116.0 218.0,144.0 188.0,160.0" fill="none" stroke="#174a9c" stroke-width="9" stroke-linecap="round" stroke-linejoin="round" opacity="0.9"/><circle cx="218.0" cy="144.0" r="3.8" fill="#174a9c" stroke="none" stroke-width="0"/><circle cx="188.0" cy="160.0" r="3.2" fill="#fff" stroke="#174a9c" stroke-width="3"/><circle cx="190.0" cy="78.0" r="18.0" fill="#2d6cdf" stroke="none" stroke-width="0"/><circle cx="190.0" cy="78.0" r="8.0" fill="#ffffff" stroke="none" stroke-width="0"/><text x="190.0" y="53.0" font-family="sans-serif" font-size="12" font-weight="700" fill="#2d6cdf" text-anchor="middle">自分</text><polyline points="188.0,160.0 246.0,158.0 296.0,160.0" fill="none" stroke="#c2410c" stroke-width="7" stroke-linecap="round" stroke-linejoin="round" opacity="0.9"/><circle cx="188.0" cy="160.0" r="8.0" fill="#fff" stroke="#111827" stroke-width="2"/><circle cx="188.0" cy="160.0" r="3.0" fill="#111827" stroke="none" stroke-width="0"/><text x="188.0" y="147.0" font-family="sans-serif" font-size="11" font-weight="700" fill="#111827" text-anchor="middle">手首</text><polygon points="176.0,145.0 216.0,145.0 218.0,182.0 176.0,182.0" fill="#dbeafe" opacity="0.54" stroke="#c2410c" stroke-width="2" stroke-dasharray="5 4"/><text x="200.0" y="200.0" font-family="sans-serif" font-size="11" font-weight="700" fill="#64748b" text-anchor="middle">両膝で腕を挟む</text><line x1="194.0" y1="168.0" x2="194.0" y2="116.0" stroke="#e0552b" stroke-width="5" stroke-linecap="round" marker-end="url(#ah)"/><text x="194.0" y="132.0" font-family="sans-serif" font-size="12" font-weight="700" fill="#e0552b" text-anchor="middle">腰を上げる</text><line x1="232.0" y1="160.0" x2="304.0" y2="160.0" stroke="#e0552b" stroke-width="5" stroke-linecap="round" marker-end="url(#ah)"/><text x="268.0" y="150.0" font-family="sans-serif" font-size="12" font-weight="700" fill="#e0552b" text-anchor="middle">腕を伸ばす</text>
  <text x="240" y="338" font-family="sans-serif" font-size="14" font-weight="700" fill="#334155" text-anchor="middle">後ろへ倒れて腕を伸ばす</text>
</svg>
