<svg xmlns="http://www.w3.org/2000/svg" viewBox="0 0 480 360" role="img" aria-label="腰をぶつけて後ろへ崩す">
  <defs>
    <marker id="ah" viewBox="0 0 10 10" refX="8" refY="5" markerWidth="8" markerHeight="8" orient="auto-start-reverse">
      <path d="M0 0L10 5L0 10z" fill="#e0552b"/>
    </marker>
    <filter id="shadow" x="-10%" y="-10%" width="120%" height="120%">
      <feDropShadow dx="0" dy="1" stdDeviation="1.2" flood-color="#0f172a" flood-opacity=".15"/>
    </filter>
  </defs>
  <rect x="2" y="2" width="476" height="356" rx="10" fill="#f6f8fb" stroke="#c8d2dd" stroke-width="2"/>
  <g filter="url(#shadow)">
    <circle cx="38" cy="38" r="20" fill="#2d6cdf"/>
    <text x="38" y="45" font-family="sans-serif" font-size="20" font-weight="bold" fill="#fff" text-anchor="middle">2</text>
  </g>
  <g>
    <circle cx="368" cy="30" r="6" fill="#2d6cdf"/><text x="380" y="34" font-family="sans-serif" font-size="11" fill="#64748b">自分</text>
    <circle cx="414" cy="30" r="6" fill="#8a94a3"/><text x="426" y="34" font-family="sans-serif" font-size="11" fill="#64748b">相手</text>
  </g>
  <polyline points="246.0,158.0 216.0,130.0 196.0,102.0" fill="none" stroke="#8a94a3" stroke-width="12" stroke-linecap="round" stroke-linejoin="round" opacity="0.9"/><circle cx="216.0" cy="130.0" r="5.0" fill="#8a94a3" stroke="none" stroke-width="0"/><circle cx="196.0" cy="102.0" r="4.3" fill="#fff" stroke="#8a94a3" stroke-width="3"/><polyline points="246.0,182.0 220.0,210.0 198.0,242.0" fill="none" stroke="#8a94a3" stroke-width="12" stroke-linecap="round" stroke-linejoin="round" opacity="0.9"/><circle cx="220.0" cy="210.0" r="5.0" fill="#8a94a3" stroke="none" stroke-width="0"/><circle cx="198.0" cy="242.0" r="4.3" fill="#fff" stroke="#8a94a3" stroke-width="3"/><polyline points="334.0,148.0 246.0,170.0" fill="none" stroke="#8a94a3" stroke-width="30" stroke-linecap="round" stroke-linejoin="round" opacity="0.86"/><circle cx="246.0" cy="170.0" r="13.0" fill="#8a94a3" stroke="none" stroke-width="0"/><polyline points="316.0,136.0 282.0,136.0 252.0,136.0" fill="none" stroke="#586474" stroke-width="9" stroke-linecap="round" stroke-linejoin="round" opacity="0.9"/><circle cx="282.0" cy="136.0" r="3.8" fill="#586474" stroke="none" stroke-width="0"/><circle cx="252.0" cy="136.0" r="3.2" fill="#fff" stroke="#586474" stroke-width="3"/><polyline points="310.0,160.0 288.0,174.0 264.0,174.0" fill="none" stroke="#586474" stroke-width="9" stroke-linecap="round" stroke-linejoin="round" opacity="0.9"/><circle cx="288.0" cy="174.0" r="3.8" fill="#586474" stroke="none" stroke-width="0"/><circle cx="264.0" cy="174.0" r="3.2" fill="#fff" stroke="#586474" stroke-width="3"/><circle cx="334.0" cy="148.0" r="18.0" fill="#8a94a3" stroke="none" stroke-width="0"/><circle cx="334.0" cy="148.0" r="8.0" fill="#ffffff" stroke="none" stroke-width="0"/><text x="334.0" y="123.0" font-family="sans-serif" font-size="12" font-weight="700" fill="#8a94a3" text-anchor="middle">相手</text><polyline points="176.0,220.0 226.0,218.0 268.0,198.0" fill="none" stroke="#2d6cdf" stroke-width="12" stroke-linecap="round" stroke-linejoin="round" opacity="0.9"/><circle cx="226.0" cy="218.0" r="5.0" fill="#2d6cdf" stroke="none" stroke-width="0"/><circle cx="268.0" cy="198.0" r="4.3" fill="#fff" stroke="#2d6cdf" stroke-width="3"/><polyline points="166.0,234.0 218.0,246.0 260.0,238.0" fill="none" stroke="#2d6cdf" stroke-width="12" stroke-linecap="round" stroke-linejoin="round" opacity="0.9"/><circle cx="218.0" cy="246.0" r="5.0" fill="#2d6cdf" stroke="none" stroke-width="0"/><circle cx="260.0" cy="238.0" r="4.3" fill="#fff" stroke="#2d6cdf" stroke-width="3"/><polyline points="130.0,178.0 170.0,226.0" fill="none" stroke="#2d6cdf" stroke-width="30" stroke-linecap="round" stroke-linejoin="round" opacity="0.86"/><circle cx="170.0" cy="226.0" r="13.0" fill="#2d6cdf" stroke="none" stroke-width="0"/><polyline points="152.0,166.0 196.0,132.0 252.0,136.0" fill="none" stroke="#174a9c" stroke-width="9" stroke-linecap="round" stroke-linejoin="round" opacity="0.9"/><circle cx="196.0" cy="132.0" r="3.8" fill="#174a9c" stroke="none" stroke-width="0"/><circle cx="252.0" cy="136.0" r="3.2" fill="#fff" stroke="#174a9c" stroke-width="3"/><polyline points="152.0,190.0 204.0,198.0 264.0,174.0" fill="none" stroke="#174a9c" stroke-width="9" stroke-linecap="round" stroke-linejoin="round" opacity="0.9"/><circle cx="204.0" cy="198.0" r="3.8" fill="#174a9c" stroke="none" stroke-width="0"/><circle cx="264.0" cy="174.0" r="3.2" fill="#fff" stroke="#174a9c" stroke-width="3"/><circle cx="130.0" cy="178.0" r="18.0" fill="#2d6cdf" stroke="none" stroke-width="0"/><circle cx="130.0" cy="178.0" r="8.0" fill="#ffffff" stroke="none" stroke-width="0"/><text x="130.0" y="153.0" font-family="sans-serif" font-size="12" font-weight="700" fill="#2d6cdf" text-anchor="middle">自分</text><circle cx="252.0" cy="136.0" r="8.0" fill="#fff" stroke="#111827" stroke-width="2"/><circle cx="252.0" cy="136.0" r="3.0" fill="#111827" stroke="none" stroke-width="0"/><text x="252.0" y="123.0" font-family="sans-serif" font-size="11" font-weight="700" fill="#111827" text-anchor="middle">肩</text><line x1="170.0" y1="226.0" x2="262.0" y2="170.0" stroke="#e0552b" stroke-width="5" stroke-linecap="round" marker-end="url(#ah)"/><text x="216.0" y="188.0" font-family="sans-serif" font-size="12" font-weight="700" fill="#e0552b" text-anchor="middle">腰をぶつける</text>
  <text x="240" y="338" font-family="sans-serif" font-size="14" font-weight="700" fill="#334155" text-anchor="middle">腰をぶつけて後ろへ崩す</text>
</svg>
